# xmcd CD database file
#
# Track frame offsets:
#	150
#	15060
#	33737
#	48036
#	60889
#	73544
#	91783
#	105444
#	123645
#	133254
#	152029
#	163628
#	175432
#
# Disc length: 2513 seconds
#
# Revision: 0
# Processed by: cddbd v1.4PL0 Copyright (c) Steve Scherf et al.
# Submitted via: CDex 1.50Beta7
#
DISCID=9c09cf0d
DTITLE=Terry Robb - Heart Made of Steel
DYEAR=2000
DGENRE=Blues
TTITLE0=Home Improvement
TTITLE1=Heart Made of Steel
TTITLE2=Little White Moon
TTITLE3=Drag in F
TTITLE4=Omaha Bounce
TTITLE5=Down and Out
TTITLE6=Enron Blues
TTITLE7=Change My Ways
TTITLE8=Cypress Inn Stomp
TTITLE9=Got Me Shakin' Now
TTITLE10=West Covina Rag
TTITLE11=Now I Know What They Mean
TTITLE12=Cardinell View
EXTD=YEAR: 2000
EXTT0=
EXTT1=
EXTT2=
EXTT3=
EXTT4=
EXTT5=
EXTT6=
EXTT7=
EXTT8=
EXTT9=
EXTT10=
EXTT11=
EXTT12=
PLAYORDER=
